<svg viewBox="0 0 100 100" xmlns="http://www.w3.org/2000/svg">
    <path fill="#000000" d="M50 92.5C26.6 92.5 7.5 73.4 7.5 50S26.6 7.5 50 7.5 92.5 26.6 92.5 50 73.4 92.5 50 92.5zm0-79.3c-20.3 0-36.8 16.5-36.8 36.8S29.7 86.8 50 86.8 86.8 70.3 86.8 50 70.3 13.2 50 13.2z"/>
    <path id="c_arm_s" fill="#000000" d="M65.7 26.4c.5-.9.2-2-.7-2.5s-2-.2-2.5.6l-15 24c0 .1-.1.1-.1.2-.4.7-.4 1.6-.1 2.3.2.6.7 1.1 1.2 1.4.2.1.3.2.5.2 1.3.4 2.8-.2 3.5-1.5l13.2-24.7z"/>
    <path id="c_arm_m" fill="#000000" d="M60.02350382678833,34.42733963723822 C60.37102334373321,33.801804506737426 60.16251163356629,33.03726156945868 59.53697650306549,32.68974205251379 S58.14689843528595,32.55073424573584 57.79937891834106,33.106765472847655 L47.373793409994505,49.78770228620215 C47.373793409994505,49.857206189591125 47.30428950660553,49.857206189591125 47.30428950660553,49.9267100929801 C47.02627389304962,50.41323741670294 47.02627389304962,51.038772547203735 47.23478560321655,51.525299870926574 C47.373793409994505,51.942323291260436 47.72131292693939,52.28984280820532 48.068832443884276,52.49835451837225 C48.20784025066223,52.56785842176123 48.27734415405121,52.63736232515021 48.41635196082916,52.63736232515021 C49.31990270488586,52.915377938706115 50.36246125572052,52.49835451837225 50.84898857944336,51.59480377431555 L60.02350382678833,34.42733963723822 z"/>
</svg>