<?xml version="1.0" encoding="utf-8"?>
<svg viewBox="0 0 163.632 179.888" xmlns="http://www.w3.org/2000/svg" xmlns:bx="https://boxy-svg.com">
  <g style="" transform="matrix(1.109639, 0, 0, 1.109639, -25.722576, 0.588635)">
    <path style="paint-order: fill; stroke: rgb(0, 0, 0); stroke-width: 0.901194px; fill: rgb(26, 51, 68);" d="M 27.687 51.087 H 165.041 V 138.185 A 18.993 18.993 0 0 1 146.048 157.178 H 49.975 A 22.288 22.288 0 0 1 27.687 134.89 V 51.087 Z" bx:shape="rect 27.687 51.087 137.354 106.091 0 0 18.993 22.288 1@cbaa1f8b"/>
    <path style="fill: rgb(60, 118, 158); stroke: rgb(0, 0, 0); stroke-width: 0.901194px;" d="M 38.13 15.855 H 154.421 A 10.683 10.683 0 0 1 165.104 26.538 V 51.06 H 27.721 V 26.264 A 10.409 10.409 0 0 1 38.13 15.855 Z" bx:shape="rect 27.721 15.855 137.383 35.205 10.409 10.683 0 0 1@30307c42"/>
    <ellipse style="fill: rgb(26, 70, 112);" cx="53.467" cy="33.021" rx="6.84" ry="6.498"/>
    <ellipse style="fill: rgb(26, 70, 112);" cx="139.291" cy="33.007" rx="6.84" ry="6.498"/>
    <rect x="49.037" y="3.983" width="9.076" height="31.905" style="fill: rgb(216, 216, 216); stroke-width: 0.930572px; stroke: rgb(0, 0, 0);" rx="3.013" ry="3.013"/>
    <rect x="134.781" y="3.975" width="9.076" height="31.905" style="fill: rgb(216, 216, 216); stroke-width: 0.930572px; stroke: rgb(0, 0, 0);" rx="3.013" ry="3.013"/>
    <g transform="matrix(0.006346, 0, 0, -0.006346, 72.998573, 44.807747)" fill="#000000" stroke="none" style="">
      <path d="M 2062 3457.803 C 2046 3441.803 2045 1808.803 2060 1762.803 C 2074 1722.803 2113 1702.803 2305 1634.803 C 2393 1603.803 2502 1558.803 2548 1533.803 L 2630 1489.803 L 4945 1488.803 L 5030 1530.803 C 5083 1555.803 5162 1582.803 5240 1600.803 C 5309 1616.803 5377 1634.803 5391 1640.803 C 5427 1654.803 5465 1697.803 5479 1738.803 C 5495 1788.803 5495 3440.803 5478 3457.803 C 5469 3466.803 5355 3469.803 5028 3469.803 L 4590 3469.803 L 4430 3469.803 L 3785 3469.803 L 3140 3469.803 L 2990 3469.803 L 2532 3469.803 C 2189 3469.803 2071 3466.803 2062 3457.803 Z" style=""/>
      <path d="M 440 3270.803 C 392 3265.803 384 3260.803 367 3231.803 C 348 3198.803 348 3194.803 364 3066.803 C 382 2927.803 496 2346.803 511 2317.803 C 534 2274.803 629 2241.803 1140 2104.803 C 1412 2030.803 1950 1899.803 1979 1899.803 C 1990 1899.803 2000 1908.803 2004 1922.803 C 2007 1934.803 2010 2237.803 2010 2596.803 C 2010 3175.803 2008 3249.803 1994 3263.803 C 1980 3277.803 1899 3279.803 1237 3277.803 C 829 3276.803 470 3273.803 440 3270.803 Z" style=""/>
      <path d="M 5572 3257.803 C 5556 3241.803 5554 1858.803 5571 1827.803 C 5585 1801.803 5582 1801.803 5927 1899.803 C 6490 2058.803 6711 2137.803 7060 2305.803 C 7378 2457.803 7619 2604.803 7840 2782.803 C 8106 2996.803 8216 3187.803 8107 3246.803 C 8077 3263.803 7999 3264.803 6830 3267.803 C 5861 3269.803 5582 3267.803 5572 3257.803 Z" style=""/>
      <path d="M 2740 1352 C 2629 1135 2469 950 2268 810 C 2209 769 2158 727 2155 717 C 2137 668 2055 670 3789 670 C 5450 670 5430 670 5430 707 C 5430 713 5352 781 5258 857 C 4985 1075 4902 1166 4810 1350 C 4792 1386 4777 1416 4775 1418 C 4774 1419 2795 1440 2791 1440 C 2788 1440 2765 1401 2740 1352 Z" style=""/>
      <path d="M1902 628 c-17 -17 -17 -529 0 -546 9 -9 447 -12 1909 -12 1735 0 1899 1 1914 16 14 14 16 48 13 276 -3 217 -5 260 -18 268 -24 15 -3803 13 -3818 -2z" style=""/>
    </g>
    <path d="M 76.481 119.745 C 76.481 117.167 75.57 115.183 73.753 113.807 C 71.935 112.429 68.656 110.971 63.928 109.443 C 59.194 107.905 55.449 106.397 52.691 104.911 C 45.171 100.847 41.411 95.378 41.411 88.491 C 41.411 84.913 42.415 81.725 44.436 78.917 C 46.454 76.114 49.346 73.918 53.123 72.34 C 56.9 70.767 61.136 69.975 65.838 69.975 C 70.568 69.975 74.783 70.833 78.483 72.547 C 82.18 74.26 85.055 76.679 87.101 79.804 C 89.148 82.927 90.173 86.472 90.173 90.446 L 76.527 90.446 C 76.527 87.415 75.57 85.056 73.663 83.373 C 71.752 81.692 69.064 80.85 65.61 80.85 C 62.275 80.85 59.681 81.554 57.833 82.963 C 55.982 84.377 55.058 86.233 55.058 88.534 C 55.058 90.69 56.14 92.495 58.311 93.95 C 60.476 95.404 63.67 96.766 67.885 98.046 C 75.649 100.377 81.304 103.275 84.85 106.728 C 88.402 110.188 90.173 114.5 90.173 119.648 C 90.173 125.383 88.005 129.874 83.673 133.136 C 79.33 136.398 73.493 138.029 66.151 138.029 C 61.06 138.029 56.424 137.098 52.237 135.23 C 48.05 133.367 44.855 130.812 42.659 127.568 C 40.462 124.324 39.361 120.559 39.361 116.284 L 53.055 116.284 C 53.055 123.593 57.422 127.249 66.151 127.249 C 69.401 127.249 71.935 126.587 73.753 125.267 C 75.57 123.953 76.481 122.11 76.481 119.745 Z M 151.384 115.057 C 150.87 122.184 148.235 127.794 143.49 131.888 C 138.748 135.982 132.493 138.029 124.724 138.029 C 116.234 138.029 109.553 135.171 104.69 129.454 C 99.822 123.736 97.391 115.886 97.391 105.914 L 97.391 101.865 C 97.391 95.497 98.512 89.886 100.753 85.032 C 103 80.18 106.209 76.459 110.378 73.866 C 114.546 71.277 119.39 69.975 124.909 69.975 C 132.547 69.975 138.709 72.024 143.376 76.116 C 148.048 80.213 150.746 85.956 151.476 93.357 L 137.826 93.357 C 137.493 89.084 136.305 85.979 134.258 84.055 C 132.209 82.128 129.095 81.169 124.909 81.169 C 120.359 81.169 116.959 82.795 114.699 86.054 C 112.435 89.317 111.277 94.372 111.218 101.228 L 111.218 106.236 C 111.218 113.389 112.304 118.619 114.469 121.924 C 116.634 125.231 120.056 126.881 124.724 126.881 C 128.94 126.881 132.088 125.921 134.165 123.996 C 136.241 122.069 137.434 119.091 137.738 115.057 Z" style="fill: rgb(225, 180, 56); line-height: 25.051px; stroke: rgb(0, 0, 0); white-space: pre;"/>
  </g>
</svg>