<svg xmlns="http://www.w3.org/2000/svg" viewBox="0 0 49 49">
    <defs>
        <clipPath id="a">
            <rect y="7.5" width="64" height="32" fill="none"/>
        </clipPath>
    </defs>
    <g clip-path="url(#a)" transform="matrix(1, 0, 0, 1, -7.5, -12.5)">
        <circle cx="32" cy="39" r="10.5" stroke="#000000" stroke-miterlimit="10" stroke-width="0.5" fill="#000000"/>
        <path d="M32,22.71V16.5m0,45V55.29M43.52,27.48l4.39-4.39M16.09,54.91l4.39-4.39m0-23-4.39-4.39M47.91,54.91l-4.39-4.39M15.71,39H9.5m45,0H48.29" fill="none" stroke="#000000" stroke-linecap="round" stroke-miterlimit="10" stroke-width="3"/>
    </g>
    <line x1="8.33" y1="30.091" x2="40.692" y2="30.091" fill="none" stroke="#000000" stroke-linecap="round" stroke-width="2"/>
    <path d="M 18.308 40.395 L 22.673 40.395 L 22.673 45.795 L 30.632 38.595 L 22.673 31.396 L 22.673 36.793 L 18.308 36.793 L 18.308 40.395 Z" fill="#000000" stroke="#000000" style="" transform="matrix(0, 1, -1, 0, 63.065498, 14.125499)"/>
</svg>