<svg height='300px' width='300px'  fill="#000000" xmlns="http://www.w3.org/2000/svg" xmlns:xlink="http://www.w3.org/1999/xlink" version="1.1" x="0px" y="0px" viewBox="0 0 100 100" enable-background="new 0 0 100 100" xml:space="preserve"><path d="M50,8.333c23.012,0,41.667,18.655,41.667,41.667S73.012,91.667,50,91.667S8.333,73.012,8.333,50S26.988,8.333,50,8.333z   M50,0C22.385,0,0,22.385,0,50s22.385,50,50,50s50-22.385,50-50S77.615,0,50,0z M50,5.583c0,0-19.75,12.333-19.75,44.417  S50,94.417,50,94.417S94.417,92.833,94.417,50S50,5.583,50,5.583z"></path></svg>