<?xml version="1.0" encoding="utf-8"?>
<svg viewBox="0.821 10.679 163.612 177.166" width="163.612" height="177.166" xmlns="http://www.w3.org/2000/svg" xmlns:bx="https://boxy-svg.com">
  <g style="" transform="matrix(1.109639, 0, 0, 1.109639, -193.228806, -51.975941)">
    <path style="paint-order: fill; stroke: rgb(0, 0, 0); stroke-width: 0.901194px; fill: rgb(13, 26, 34);" d="M 180.048 106.212 H 316.848 V 192.882 A 18.993 18.993 0 0 1 297.855 211.875 H 202.336 A 22.288 22.288 0 0 1 180.048 189.587 V 106.212 Z" bx:shape="rect 180.048 106.212 136.8 105.663 0 0 18.993 22.288 1@6d5037fe"/>
    <rect x="215.851" y="110.58" width="20" height="20" style="stroke-width: 15.7167px; fill: rgb(246, 233, 195);" stroke="none"/>
    <rect x="240.851" y="110.58" width="20" height="20" style="stroke-width: 15.7167px; fill: rgb(246, 233, 195);" stroke="none"/>
    <path style="fill: rgb(60, 118, 158); stroke: rgb(0, 0, 0); stroke-width: 0.901194px;" d="M 190.491 71.122 H 306.228 A 10.683 10.683 0 0 1 316.911 81.805 V 106.185 H 180.082 V 81.531 A 10.409 10.409 0 0 1 190.491 71.122 Z" bx:shape="rect 180.082 71.122 136.829 35.063 10.409 10.683 0 0 1@64f5fb50"/>
    <ellipse style="fill: rgb(26, 70, 112);" cx="205.724" cy="88.218" rx="6.812" ry="6.472"/>
    <ellipse style="fill: rgb(26, 70, 112);" cx="291.202" cy="88.205" rx="6.812" ry="6.472"/>
    <rect x="265.851" y="110.58" width="20" height="20" style="stroke-width: 15.7167px; fill: rgb(246, 233, 195);" stroke="none"/>
    <rect x="290.851" y="110.58" width="20" height="20" style="stroke-width: 15.7167px; fill: rgb(246, 233, 195);" stroke="none"/>
    <rect x="190.851" y="135.58" width="20" height="20" style="stroke-width: 15.7167px; fill: rgb(246, 233, 195);" stroke="none"/>
    <rect x="215.851" y="135.58" width="20" height="20" style="stroke-width: 15.7167px; fill: rgb(246, 233, 195);" stroke="none"/>
    <rect x="240.851" y="135.58" width="20" height="20" style="stroke-width: 15.7167px; fill: rgb(246, 233, 195);" stroke="none"/>
    <rect x="265.851" y="135.58" width="20" height="20" style="stroke-width: 15.7167px; fill: rgb(246, 233, 195);" stroke="none"/>
    <rect x="290.851" y="135.58" width="20" height="20" style="stroke-width: 15.7167px; fill: rgb(246, 233, 195);" stroke="none"/>
    <rect x="190.851" y="160.58" width="20" height="20" style="stroke-width: 15.7167px; fill: rgb(246, 233, 195);" stroke="none"/>
    <rect x="215.851" y="160.58" width="20" height="20" style="stroke-width: 15.7167px; fill: rgb(246, 233, 195);" stroke="none"/>
    <rect x="240.851" y="160.58" width="20" height="20" style="stroke-width: 15.7167px; fill: rgb(246, 233, 195);" stroke="none"/>
    <rect x="265.851" y="160.58" width="20" height="20" style="stroke-width: 15.7167px; fill: rgb(246, 233, 195);" stroke="none"/>
    <rect x="290.851" y="160.58" width="20" height="20" style="stroke-width: 15.7167px; fill: rgb(60, 159, 133);" stroke="none"/>
    <rect x="190.851" y="185.58" width="20" height="20" style="stroke-width: 15.7167px; fill: rgb(246, 233, 195);" stroke="none"/>
    <rect x="215.367" y="185.58" width="20" height="20" style="stroke-width: 15.7167px; fill: rgb(246, 233, 195);" stroke="none"/>
    <rect x="240.851" y="185.58" width="20" height="20" style="stroke-width: 15.7167px; fill: rgb(246, 233, 195);" stroke="none"/>
    <rect x="265.851" y="185.58" width="20" height="20" style="stroke-width: 15.7167px; fill: rgb(246, 233, 195);" stroke="none"/>
    <rect x="201.312" y="59.298" width="9.04" height="31.776" style="fill: rgb(216, 216, 216); stroke-width: 0.930572px; stroke: rgb(0, 0, 0);" rx="3.013" ry="3.013"/>
    <rect x="286.71" y="59.29" width="9.04" height="31.776" style="fill: rgb(216, 216, 216); stroke-width: 0.930572px; stroke: rgb(0, 0, 0);" rx="3.013" ry="3.013"/>
    <g transform="matrix(0.00856, 0, 0, -0.00856, 214.176926, 105.116135)" fill="#000000" stroke="none" style="">
      <path d="M 2062 3457.803 C 2046 3441.803 2045 1808.803 2060 1762.803 C 2074 1722.803 2113 1702.803 2305 1634.803 C 2393 1603.803 2502 1558.803 2548 1533.803 L 2630 1489.803 L 4945 1488.803 L 5030 1530.803 C 5083 1555.803 5162 1582.803 5240 1600.803 C 5309 1616.803 5377 1634.803 5391 1640.803 C 5427 1654.803 5465 1697.803 5479 1738.803 C 5495 1788.803 5495 3440.803 5478 3457.803 C 5469 3466.803 5355 3469.803 5028 3469.803 L 4590 3469.803 L 4430 3469.803 L 3785 3469.803 L 3140 3469.803 L 2990 3469.803 L 2532 3469.803 C 2189 3469.803 2071 3466.803 2062 3457.803 Z" style=""/>
      <path d="M 440 3270.803 C 392 3265.803 384 3260.803 367 3231.803 C 348 3198.803 348 3194.803 364 3066.803 C 382 2927.803 496 2346.803 511 2317.803 C 534 2274.803 629 2241.803 1140 2104.803 C 1412 2030.803 1950 1899.803 1979 1899.803 C 1990 1899.803 2000 1908.803 2004 1922.803 C 2007 1934.803 2010 2237.803 2010 2596.803 C 2010 3175.803 2008 3249.803 1994 3263.803 C 1980 3277.803 1899 3279.803 1237 3277.803 C 829 3276.803 470 3273.803 440 3270.803 Z" style=""/>
      <path d="M 5572 3257.803 C 5556 3241.803 5554 1858.803 5571 1827.803 C 5585 1801.803 5582 1801.803 5927 1899.803 C 6490 2058.803 6711 2137.803 7060 2305.803 C 7378 2457.803 7619 2604.803 7840 2782.803 C 8106 2996.803 8216 3187.803 8107 3246.803 C 8077 3263.803 7999 3264.803 6830 3267.803 C 5861 3269.803 5582 3267.803 5572 3257.803 Z" style=""/>
      <path d="M 2740 1352 C 2629 1135 2469 950 2268 810 C 2209 769 2158 727 2155 717 C 2137 668 2055 670 3789 670 C 5450 670 5430 670 5430 707 C 5430 713 5352 781 5258 857 C 4985 1075 4902 1166 4810 1350 C 4792 1386 4777 1416 4775 1418 C 4774 1419 2795 1440 2791 1440 C 2788 1440 2765 1401 2740 1352 Z" style=""/>
      <path d="M1902 628 c-17 -17 -17 -529 0 -546 9 -9 447 -12 1909 -12 1735 0 1899 1 1914 16 14 14 16 48 13 276 -3 217 -5 260 -18 268 -24 15 -3803 13 -3818 -2z" style=""/>
    </g>
    <path d="M 241.24462890625 90.70721588134765 Q 241.24462890625 89.58246002197265 240.45068359375 88.98038482666016 Q 239.65673828125 88.37830963134766 237.59248046875 87.71007232666015 Q 235.52822265625 87.04183502197266 234.324072265625 86.39344635009766 Q 231.042431640625 84.62030181884765 231.042431640625 81.61654205322266 Q 231.042431640625 80.05511627197265 231.9223876953125 78.83111724853515 Q 232.80234375 77.60711822509765 234.4497802734375 76.91903228759766 Q 236.097216796875 76.23094635009765 238.1482421875 76.23094635009765 Q 240.2125 76.23094635009765 241.82685546875 76.97857818603515 Q 243.4412109375 77.72621002197266 244.3343994140625 79.08914947509766 Q 245.227587890625 80.45208892822265 245.227587890625 82.18553619384765 L 241.257861328125 82.18553619384765 Q 241.257861328125 80.86229400634765 240.42421875 80.12789459228516 Q 239.590576171875 79.39349517822265 238.082080078125 79.39349517822265 Q 236.626513671875 79.39349517822265 235.8193359375 80.00880279541016 Q 235.012158203125 80.62411041259766 235.012158203125 81.62977447509766 Q 235.012158203125 82.56927642822265 235.9582763671875 83.20443267822266 Q 236.90439453125 83.83958892822265 238.743701171875 84.39535064697266 Q 242.131201171875 85.41424713134765 243.67939453125 86.92274322509766 Q 245.227587890625 88.43123931884766 245.227587890625 90.68075103759766 Q 245.227587890625 93.18167877197266 243.3353515625 94.60416412353516 Q 241.443115234375 96.02664947509766 238.240869140625 96.02664947509766 Q 236.017822265625 96.02664947509766 234.191748046875 95.21285552978516 Q 232.365673828125 94.39906158447266 231.4063232421875 92.98319244384766 Q 230.44697265625 91.56732330322265 230.44697265625 89.70155181884766 L 234.429931640625 89.70155181884766 Q 234.429931640625 92.89056549072265 238.240869140625 92.89056549072265 Q 239.65673828125 92.89056549072265 240.45068359375 92.31495513916016 Q 241.24462890625 91.73934478759766 241.24462890625 90.70721588134765 Z M 263.0331207275391 89.34427642822266 Q 262.80816955566405 92.45389556884766 260.73729553222654 94.24027252197266 Q 258.6664215087891 96.02664947509766 255.27892150878907 96.02664947509766 Q 251.57384338378907 96.02664947509766 249.45003967285157 93.53233795166015 Q 247.32623596191405 91.03802642822265 247.32623596191405 86.68455963134765 L 247.32623596191405 85.50687408447266 Q 247.32623596191405 82.72806549072266 248.30543518066406 80.61087799072266 Q 249.28463439941407 78.49369049072266 251.10409240722657 77.36231842041016 Q 252.92355041503907 76.23094635009765 255.33185119628905 76.23094635009765 Q 258.6664215087891 76.23094635009765 260.70421447753904 78.01732330322265 Q 262.74200744628905 79.80370025634765 263.05958557128906 83.03241119384765 L 259.08985900878906 83.03241119384765 Q 258.9443023681641 81.16663970947266 258.0511138916016 80.32638092041016 Q 257.1579254150391 79.48612213134766 255.33185119628905 79.48612213134766 Q 253.34698791503905 79.48612213134766 252.36117248535157 80.90860748291016 Q 251.37535705566407 82.33109283447266 251.34889221191406 85.32162017822266 L 251.34889221191406 86.77718658447266 Q 251.34889221191406 89.90003814697266 252.29501037597657 91.34237213134766 Q 253.24112854003906 92.78470611572266 255.27892150878907 92.78470611572266 Q 257.11822814941405 92.78470611572266 258.02464904785154 91.94444732666015 Q 258.9310699462891 91.10418853759765 259.0633941650391 89.34427642822266 Z" transform="matrix(1, 0, 0, 1, 0, 0)" style="fill: rgb(225, 180, 56); line-height: 25.051px; stroke: rgb(0, 0, 0); white-space: pre;"/>
  </g>
</svg>